# xmcd
#
# Track frame offsets: 
#        150
#        12677
#        30780
#        45467
#        63227
#        80737
#        97537
#        111430
#        129467
#        142972
#        158972
#        172475
#        182955
#        197182
#        213625
#        228602
#        245292
#        265870
#        287260
#        287870
#
# Disc length: 3842 seconds
#
# Revision: 5
# Processed by: cddbd v1.5.2PL0 Copyright (c) Steve Scherf et al.
# Submitted via: ExactAudioCopy v1.3
#
DISCID=240f0014
DTITLE=Various Artist - CDX 122 November 1995
DYEAR=1995
DGENRE=Country
TTITLE0=Marty Haggard - Amnesia
TTITLE1=Joe Diffie - Bigger Than The Beatles
TTITLE2=John Michael Montgomery - Cowboy Love
TTITLE3=Kenny Chesney - Grandpa Told Me So (Radio Edit)
TTITLE4=Shania Twain - (If You're Note In It For Love) I'm Outta Here 
TTITLE4=(Edit)
TTITLE5=Curtis Day - My Baby's Cookin'
TTITLE6=Cooter Brown - Pure Bred Redneck
TTITLE7=Reba McEntire - Ring On Her Finger, Time On Her Hands (Edited 
TTITLE7=Version)
TTITLE8=Woody Lee - Salt And Water
TTITLE9=Linda Davis - Some Things Are Meant To Be
TTITLE10=Mark Collie - Steady As She Goes
TTITLE11=Nanci Griffith with The Crickets - Well ... All Right
TTITLE12=Paul Overstreet - We've Got To Keep On Meeting Like This
TTITLE13=Ricochet - What Do I Know
TTITLE14=Confederate Railroad - When He Was My Age
TTITLE15=Martina McBride - Wild Angels (Edited Version)
TTITLE16=Shania Twain - (If You're Not In It For Love) I'm Outta Here 
TTITLE16=(Album Version)
TTITLE17=Shania Twain - (If You're Not In It For Love) I'm Outta Here 
TTITLE17=(Dance Mix)
TTITLE18=Lorrie Morgan - Happy Thanksgiving (Station Liner)
TTITLE19=Lorrie Morgan - Happy Holidays (Station Liner)
EXTD=
EXTT0=
EXTT1=
EXTT2=
EXTT3=
EXTT4=
EXTT5=
EXTT6=
EXTT7=
EXTT8=
EXTT9=
EXTT10=
EXTT11=
EXTT12=
EXTT13=
EXTT14=
EXTT15=
EXTT16=
EXTT17=
EXTT18=
EXTT19=
PLAYORDER=
